<mxfile host="app.diagrams.net" agent="Mozilla/5.0 (Windows NT 10.0; Win64; x64) AppleWebKit/537.36 (KHTML, like Gecko) Chrome/134.0.0.0 Safari/537.36" version="26.1.1">
  <diagram name="PÃ¡gina-1" id="AGyHaqVRXeAcVc3TGNhS">
    <mxGraphModel dx="1434" dy="772" grid="1" gridSize="10" guides="1" tooltips="1" connect="1" arrows="1" fold="1" page="1" pageScale="1" pageWidth="827" pageHeight="1169" math="0" shadow="0">
      <root>
        <mxCell id="0" />
        <mxCell id="1" parent="0" />
        <mxCell id="fzEd_CqYKe37yI4dsjEe-3" value="" style="edgeStyle=orthogonalEdgeStyle;rounded=0;orthogonalLoop=1;jettySize=auto;html=1;" edge="1" parent="1" source="fzEd_CqYKe37yI4dsjEe-1" target="fzEd_CqYKe37yI4dsjEe-2">
          <mxGeometry relative="1" as="geometry" />
        </mxCell>
        <mxCell id="fzEd_CqYKe37yI4dsjEe-1" value="inicio" style="ellipse;whiteSpace=wrap;html=1;" vertex="1" parent="1">
          <mxGeometry x="354" y="40" width="120" height="80" as="geometry" />
        </mxCell>
        <mxCell id="fzEd_CqYKe37yI4dsjEe-7" value="" style="edgeStyle=orthogonalEdgeStyle;rounded=0;orthogonalLoop=1;jettySize=auto;html=1;" edge="1" parent="1" source="fzEd_CqYKe37yI4dsjEe-2" target="fzEd_CqYKe37yI4dsjEe-6">
          <mxGeometry relative="1" as="geometry" />
        </mxCell>
        <mxCell id="fzEd_CqYKe37yI4dsjEe-2" value="cotacao, valorreais" style="shape=parallelogram;perimeter=parallelogramPerimeter;whiteSpace=wrap;html=1;fixedSize=1;" vertex="1" parent="1">
          <mxGeometry x="354" y="210" width="120" height="60" as="geometry" />
        </mxCell>
        <mxCell id="fzEd_CqYKe37yI4dsjEe-9" value="" style="edgeStyle=orthogonalEdgeStyle;rounded=0;orthogonalLoop=1;jettySize=auto;html=1;" edge="1" parent="1" source="fzEd_CqYKe37yI4dsjEe-6" target="fzEd_CqYKe37yI4dsjEe-8">
          <mxGeometry relative="1" as="geometry" />
        </mxCell>
        <mxCell id="fzEd_CqYKe37yI4dsjEe-6" value="resultado = valorreais/cotacao" style="whiteSpace=wrap;html=1;" vertex="1" parent="1">
          <mxGeometry x="354" y="350" width="120" height="60" as="geometry" />
        </mxCell>
        <mxCell id="fzEd_CqYKe37yI4dsjEe-11" value="" style="edgeStyle=orthogonalEdgeStyle;rounded=0;orthogonalLoop=1;jettySize=auto;html=1;" edge="1" parent="1" source="fzEd_CqYKe37yI4dsjEe-8" target="fzEd_CqYKe37yI4dsjEe-10">
          <mxGeometry relative="1" as="geometry" />
        </mxCell>
        <mxCell id="fzEd_CqYKe37yI4dsjEe-8" value="resultado" style="shape=document;whiteSpace=wrap;html=1;boundedLbl=1;" vertex="1" parent="1">
          <mxGeometry x="354" y="480" width="120" height="80" as="geometry" />
        </mxCell>
        <mxCell id="fzEd_CqYKe37yI4dsjEe-10" value="fim" style="ellipse;whiteSpace=wrap;html=1;" vertex="1" parent="1">
          <mxGeometry x="374" y="640" width="80" height="80" as="geometry" />
        </mxCell>
      </root>
    </mxGraphModel>
  </diagram>
</mxfile>
